<svg xmlns="http://www.w3.org/2000/svg" viewBox="0 0 480 320" fill="none">
  <!-- Agents standing on the bars of a count: how many work at once. -->
  <g stroke="#141413" stroke-width="4" stroke-linecap="round" stroke-linejoin="round" vector-effect="non-scaling-stroke">
<path vector-effect="non-scaling-stroke" d="M56 272 H424"/>
<rect vector-effect="non-scaling-stroke" x="84" y="226" width="48" height="46" rx="4" fill="#faf9f5"/>
<g transform="translate(88.5 165) scale(0.672)"><path vector-effect="non-scaling-stroke" d="M4 38 C4 18 19 4 35 4 C51 4 66 18 66 38 L66 86 L55 77 L45 86 L35 77 L25 86 L15 77 L4 86 Z" fill="#faf9f5"/><ellipse cx="25" cy="36" rx="4.5" ry="6" fill="#141413" stroke="none"/><ellipse cx="45" cy="36" rx="4.5" ry="6" fill="#141413" stroke="none"/><path vector-effect="non-scaling-stroke" d="M30 52 Q35 56 40 52" fill="none"/></g>
<rect vector-effect="non-scaling-stroke" x="150" y="188" width="48" height="84" rx="4" fill="#faf9f5"/>
<g transform="translate(154.5 127) scale(0.672)"><path vector-effect="non-scaling-stroke" d="M4 38 C4 18 19 4 35 4 C51 4 66 18 66 38 L66 86 L55 77 L45 86 L35 77 L25 86 L15 77 L4 86 Z" fill="#faf9f5"/><ellipse cx="25" cy="36" rx="4.5" ry="6" fill="#141413" stroke="none"/><ellipse cx="45" cy="36" rx="4.5" ry="6" fill="#141413" stroke="none"/><path vector-effect="non-scaling-stroke" d="M30 52 Q35 56 40 52" fill="none"/></g>
<rect vector-effect="non-scaling-stroke" x="216" y="144" width="48" height="128" rx="4" fill="#faf9f5"/>
<g transform="translate(220.5 83) scale(0.672)"><path vector-effect="non-scaling-stroke" d="M4 38 C4 18 19 4 35 4 C51 4 66 18 66 38 L66 86 L55 77 L45 86 L35 77 L25 86 L15 77 L4 86 Z" fill="#faf9f5"/><ellipse cx="25" cy="36" rx="4.5" ry="6" fill="#141413" stroke="none"/><ellipse cx="45" cy="36" rx="4.5" ry="6" fill="#141413" stroke="none"/><path vector-effect="non-scaling-stroke" d="M25 56 L32 62 L25 68 M37 69 H46" fill="none"/></g>
<rect vector-effect="non-scaling-stroke" x="282" y="176" width="48" height="96" rx="4" fill="#faf9f5"/>
<g transform="translate(286.5 115) scale(0.672)"><path vector-effect="non-scaling-stroke" d="M4 38 C4 18 19 4 35 4 C51 4 66 18 66 38 L66 86 L55 77 L45 86 L35 77 L25 86 L15 77 L4 86 Z" fill="#faf9f5"/><ellipse cx="25" cy="36" rx="4.5" ry="6" fill="#141413" stroke="none"/><ellipse cx="45" cy="36" rx="4.5" ry="6" fill="#141413" stroke="none"/><path vector-effect="non-scaling-stroke" d="M30 52 Q35 56 40 52" fill="none"/></g>
<rect vector-effect="non-scaling-stroke" x="348" y="212" width="48" height="60" rx="4" fill="#faf9f5"/>
<g transform="translate(352.5 151) scale(0.672)"><path vector-effect="non-scaling-stroke" d="M4 38 C4 18 19 4 35 4 C51 4 66 18 66 38 L66 86 L55 77 L45 86 L35 77 L25 86 L15 77 L4 86 Z" fill="#faf9f5"/><ellipse cx="25" cy="36" rx="4.5" ry="6" fill="#141413" stroke="none"/><ellipse cx="45" cy="36" rx="4.5" ry="6" fill="#141413" stroke="none"/><path vector-effect="non-scaling-stroke" d="M30 52 Q35 56 40 52" fill="none"/></g>
<path vector-effect="non-scaling-stroke" d="M226 58 L220 46 M244 52 V38 M262 58 L268 46"/>
  </g>
</svg>
